%TF.GenerationSoftware,KiCad,Pcbnew,9.0.7*%
%TF.CreationDate,2026-03-11T13:45:37+01:00*%
%TF.ProjectId,Carte_puissance,43617274-655f-4707-9569-7373616e6365,rev?*%
%TF.SameCoordinates,Original*%
%TF.FileFunction,Plated,1,2,PTH,Drill*%
%TF.FilePolarity,Positive*%
%FSLAX46Y46*%
G04 Gerber Fmt 4.6, Leading zero omitted, Abs format (unit mm)*
G04 Created by KiCad (PCBNEW 9.0.7) date 2026-03-11 13:45:37*
%MOMM*%
%LPD*%
G01*
G04 APERTURE LIST*
%TA.AperFunction,ComponentDrill*%
%ADD10C,0.800000*%
%TD*%
%TA.AperFunction,ComponentDrill*%
%ADD11C,1.000000*%
%TD*%
%TA.AperFunction,ComponentDrill*%
%ADD12C,1.300000*%
%TD*%
%TA.AperFunction,ComponentDrill*%
%ADD13C,1.500000*%
%TD*%
%TA.AperFunction,ComponentDrill*%
%ADD14C,2.000000*%
%TD*%
%TA.AperFunction,ComponentDrill*%
%ADD15C,3.000000*%
%TD*%
G04 APERTURE END LIST*
D10*
%TO.C,R1*%
X261500000Y-38920000D03*
X261500000Y-49080000D03*
%TO.C,R2*%
X267000000Y-38920000D03*
X267000000Y-49080000D03*
%TO.C,A1*%
X288640000Y-63110000D03*
X288640000Y-65650000D03*
X288640000Y-68190000D03*
X288640000Y-70730000D03*
X288640000Y-73270000D03*
X288640000Y-75810000D03*
X288640000Y-78350000D03*
X288640000Y-80890000D03*
%TO.C,A3*%
X288660000Y-95610000D03*
X288660000Y-98150000D03*
X288660000Y-100690000D03*
X288660000Y-103230000D03*
X288660000Y-105770000D03*
X288660000Y-108310000D03*
X288660000Y-110850000D03*
X288660000Y-113390000D03*
%TO.C,A1*%
X301340000Y-63110000D03*
X301340000Y-65650000D03*
X301340000Y-68190000D03*
X301340000Y-70730000D03*
X301340000Y-73270000D03*
X301340000Y-75810000D03*
X301340000Y-78350000D03*
X301340000Y-80890000D03*
%TO.C,A3*%
X301360000Y-95610000D03*
X301360000Y-98150000D03*
X301360000Y-100690000D03*
X301360000Y-103230000D03*
X301360000Y-105770000D03*
X301360000Y-108310000D03*
X301360000Y-110850000D03*
X301360000Y-113390000D03*
%TO.C,A2*%
X328140000Y-63110000D03*
X328140000Y-65650000D03*
X328140000Y-68190000D03*
X328140000Y-70730000D03*
X328140000Y-73270000D03*
X328140000Y-75810000D03*
X328140000Y-78350000D03*
X328140000Y-80890000D03*
%TO.C,A4*%
X328140000Y-99190000D03*
X328140000Y-101730000D03*
X328140000Y-104270000D03*
X328140000Y-106810000D03*
X328140000Y-109350000D03*
X328140000Y-111890000D03*
X328140000Y-114430000D03*
X328140000Y-116970000D03*
%TO.C,A2*%
X340840000Y-63110000D03*
X340840000Y-65650000D03*
X340840000Y-68190000D03*
X340840000Y-70730000D03*
X340840000Y-73270000D03*
X340840000Y-75810000D03*
X340840000Y-78350000D03*
X340840000Y-80890000D03*
%TO.C,A4*%
X340840000Y-99190000D03*
X340840000Y-101730000D03*
X340840000Y-104270000D03*
X340840000Y-106810000D03*
X340840000Y-109350000D03*
X340840000Y-111890000D03*
X340840000Y-114430000D03*
X340840000Y-116970000D03*
D11*
%TO.C,D1*%
X253960000Y-55500000D03*
X256500000Y-55500000D03*
%TO.C,D2*%
X262960000Y-55500000D03*
X265500000Y-55500000D03*
%TO.C,J3*%
X268000000Y-64880000D03*
X268000000Y-67420000D03*
X268000000Y-69960000D03*
X268000000Y-72500000D03*
X268000000Y-75040000D03*
X268000000Y-77580000D03*
%TO.C,J31*%
X268000000Y-82500000D03*
X268000000Y-85040000D03*
X268000000Y-87580000D03*
X268000000Y-90120000D03*
%TO.C,J27*%
X268500000Y-102800000D03*
X268500000Y-105340000D03*
X268500000Y-107880000D03*
X268500000Y-110420000D03*
X268500000Y-112960000D03*
X268500000Y-115500000D03*
%TO.C,C2*%
X280500000Y-116000000D03*
X280500000Y-121000000D03*
%TO.C,J9*%
X281000000Y-97500000D03*
X281000000Y-100000000D03*
X281000000Y-102500000D03*
X281000000Y-105000000D03*
X281000000Y-107500000D03*
X281000000Y-110000000D03*
%TO.C,J10*%
X281500000Y-64500000D03*
X281500000Y-67000000D03*
X281500000Y-69500000D03*
X281500000Y-72000000D03*
X281500000Y-74500000D03*
X281500000Y-77000000D03*
%TO.C,C1*%
X281500000Y-85000000D03*
X281500000Y-90000000D03*
%TO.C,J24*%
X308340000Y-63150000D03*
X308340000Y-65690000D03*
X308340000Y-68230000D03*
X308340000Y-70770000D03*
%TO.C,J29*%
X308340000Y-74730000D03*
X308340000Y-77270000D03*
%TO.C,J20*%
X308340000Y-80995000D03*
X308340000Y-83535000D03*
%TO.C,J19*%
X308340000Y-87230000D03*
X308340000Y-89770000D03*
%TO.C,J23*%
X308340000Y-95460000D03*
X308340000Y-98000000D03*
X308340000Y-100540000D03*
X308340000Y-103080000D03*
%TO.C,J16*%
X308340000Y-108455000D03*
X308340000Y-110995000D03*
%TO.C,J15*%
X308340000Y-114685000D03*
X308340000Y-117225000D03*
%TO.C,J28*%
X315000000Y-114725000D03*
X315000000Y-117265000D03*
%TO.C,J21*%
X320840000Y-76420000D03*
X320840000Y-78960000D03*
X320840000Y-81500000D03*
X320840000Y-84040000D03*
%TO.C,J13*%
X321040000Y-63460000D03*
X321040000Y-66000000D03*
%TO.C,J14*%
X321040000Y-69960000D03*
X321040000Y-72500000D03*
%TO.C,J17*%
X321340000Y-96460000D03*
X321340000Y-99000000D03*
%TO.C,J18*%
X321340000Y-102960000D03*
X321340000Y-105500000D03*
%TO.C,J22*%
X321340000Y-109190000D03*
X321340000Y-111730000D03*
X321340000Y-114270000D03*
X321340000Y-116810000D03*
%TO.C,J8*%
X348000000Y-104000000D03*
X348000000Y-106500000D03*
X348000000Y-109000000D03*
X348000000Y-111500000D03*
X348000000Y-114000000D03*
X348000000Y-116500000D03*
%TO.C,J7*%
X348500000Y-67500000D03*
X348500000Y-70000000D03*
X348500000Y-72500000D03*
X348500000Y-75000000D03*
X348500000Y-77500000D03*
X348500000Y-80000000D03*
%TO.C,C3*%
X351000000Y-55367677D03*
X351000000Y-60367677D03*
%TO.C,C4*%
X351000000Y-91867677D03*
X351000000Y-96867677D03*
D12*
%TO.C,J2*%
X257000000Y-64780000D03*
D13*
X257000000Y-69860000D03*
X257000000Y-74940000D03*
X257000000Y-80020000D03*
X257000000Y-85100000D03*
X257000000Y-90180000D03*
X257000000Y-95260000D03*
X257000000Y-100340000D03*
X257000000Y-105420000D03*
X257000000Y-110500000D03*
%TO.C,J30*%
X273600000Y-44000000D03*
X278680000Y-44000000D03*
X283760000Y-44000000D03*
X288840000Y-44000000D03*
X293920000Y-44000000D03*
X299000000Y-44000000D03*
%TO.C,J25*%
X342920000Y-43827500D03*
X348000000Y-43827500D03*
D14*
%TO.C,F1*%
X307500000Y-42000000D03*
X307500000Y-46000000D03*
X321500000Y-42000000D03*
X321500000Y-46000000D03*
D15*
%TO.C,J1*%
X332500000Y-43227500D03*
X332500000Y-50427500D03*
M02*
