%TF.GenerationSoftware,KiCad,Pcbnew,9.0.7*%
%TF.CreationDate,2026-03-11T13:45:37+01:00*%
%TF.ProjectId,Carte_puissance,43617274-655f-4707-9569-7373616e6365,rev?*%
%TF.SameCoordinates,Original*%
%TF.FileFunction,Drillmap*%
%TF.FilePolarity,Positive*%
%FSLAX45Y45*%
G04 Gerber Fmt 4.5, Leading zero omitted, Abs format (unit mm)*
G04 Created by KiCad (PCBNEW 9.0.7) date 2026-03-11 13:45:37*
%MOMM*%
%LPD*%
G01*
G04 APERTURE LIST*
%ADD10C,0.050000*%
%ADD11C,0.200000*%
%ADD12C,0.320000*%
G04 APERTURE END LIST*
D10*
X24800000Y-3350000D02*
X36350000Y-3350000D01*
X36350000Y-12650000D01*
X24800000Y-12650000D01*
X24800000Y-3350000D01*
D11*
D12*
X25390000Y-3990000D02*
X25710000Y-4310000D01*
X25710000Y-3990000D02*
X25390000Y-4310000D01*
X25390000Y-11690000D02*
X25710000Y-12010000D01*
X25710000Y-11690000D02*
X25390000Y-12010000D01*
X35440000Y-3990000D02*
X35760000Y-4310000D01*
X35760000Y-3990000D02*
X35440000Y-4310000D01*
X35440000Y-11690000D02*
X35760000Y-12010000D01*
X35760000Y-11690000D02*
X35440000Y-12010000D01*
D11*
X25058277Y-12963984D02*
X25058277Y-12763984D01*
X25058277Y-12763984D02*
X25105896Y-12763984D01*
X25105896Y-12763984D02*
X25134467Y-12773508D01*
X25134467Y-12773508D02*
X25153515Y-12792555D01*
X25153515Y-12792555D02*
X25163039Y-12811603D01*
X25163039Y-12811603D02*
X25172562Y-12849698D01*
X25172562Y-12849698D02*
X25172562Y-12878269D01*
X25172562Y-12878269D02*
X25163039Y-12916365D01*
X25163039Y-12916365D02*
X25153515Y-12935412D01*
X25153515Y-12935412D02*
X25134467Y-12954460D01*
X25134467Y-12954460D02*
X25105896Y-12963984D01*
X25105896Y-12963984D02*
X25058277Y-12963984D01*
X25258277Y-12963984D02*
X25258277Y-12830650D01*
X25258277Y-12868746D02*
X25267801Y-12849698D01*
X25267801Y-12849698D02*
X25277324Y-12840174D01*
X25277324Y-12840174D02*
X25296372Y-12830650D01*
X25296372Y-12830650D02*
X25315420Y-12830650D01*
X25382086Y-12963984D02*
X25382086Y-12830650D01*
X25382086Y-12763984D02*
X25372562Y-12773508D01*
X25372562Y-12773508D02*
X25382086Y-12783031D01*
X25382086Y-12783031D02*
X25391610Y-12773508D01*
X25391610Y-12773508D02*
X25382086Y-12763984D01*
X25382086Y-12763984D02*
X25382086Y-12783031D01*
X25505896Y-12963984D02*
X25486848Y-12954460D01*
X25486848Y-12954460D02*
X25477324Y-12935412D01*
X25477324Y-12935412D02*
X25477324Y-12763984D01*
X25610658Y-12963984D02*
X25591610Y-12954460D01*
X25591610Y-12954460D02*
X25582086Y-12935412D01*
X25582086Y-12935412D02*
X25582086Y-12763984D01*
X25839229Y-12963984D02*
X25839229Y-12763984D01*
X25839229Y-12763984D02*
X25905896Y-12906841D01*
X25905896Y-12906841D02*
X25972562Y-12763984D01*
X25972562Y-12763984D02*
X25972562Y-12963984D01*
X26153515Y-12963984D02*
X26153515Y-12859222D01*
X26153515Y-12859222D02*
X26143991Y-12840174D01*
X26143991Y-12840174D02*
X26124943Y-12830650D01*
X26124943Y-12830650D02*
X26086848Y-12830650D01*
X26086848Y-12830650D02*
X26067801Y-12840174D01*
X26153515Y-12954460D02*
X26134467Y-12963984D01*
X26134467Y-12963984D02*
X26086848Y-12963984D01*
X26086848Y-12963984D02*
X26067801Y-12954460D01*
X26067801Y-12954460D02*
X26058277Y-12935412D01*
X26058277Y-12935412D02*
X26058277Y-12916365D01*
X26058277Y-12916365D02*
X26067801Y-12897317D01*
X26067801Y-12897317D02*
X26086848Y-12887793D01*
X26086848Y-12887793D02*
X26134467Y-12887793D01*
X26134467Y-12887793D02*
X26153515Y-12878269D01*
X26248753Y-12830650D02*
X26248753Y-13030650D01*
X26248753Y-12840174D02*
X26267801Y-12830650D01*
X26267801Y-12830650D02*
X26305896Y-12830650D01*
X26305896Y-12830650D02*
X26324943Y-12840174D01*
X26324943Y-12840174D02*
X26334467Y-12849698D01*
X26334467Y-12849698D02*
X26343991Y-12868746D01*
X26343991Y-12868746D02*
X26343991Y-12925888D01*
X26343991Y-12925888D02*
X26334467Y-12944936D01*
X26334467Y-12944936D02*
X26324943Y-12954460D01*
X26324943Y-12954460D02*
X26305896Y-12963984D01*
X26305896Y-12963984D02*
X26267801Y-12963984D01*
X26267801Y-12963984D02*
X26248753Y-12954460D01*
X26429705Y-12944936D02*
X26439229Y-12954460D01*
X26439229Y-12954460D02*
X26429705Y-12963984D01*
X26429705Y-12963984D02*
X26420182Y-12954460D01*
X26420182Y-12954460D02*
X26429705Y-12944936D01*
X26429705Y-12944936D02*
X26429705Y-12963984D01*
X26429705Y-12840174D02*
X26439229Y-12849698D01*
X26439229Y-12849698D02*
X26429705Y-12859222D01*
X26429705Y-12859222D02*
X26420182Y-12849698D01*
X26420182Y-12849698D02*
X26429705Y-12840174D01*
X26429705Y-12840174D02*
X26429705Y-12859222D01*
X24597500Y-13192500D02*
X24797500Y-13392500D01*
X24797500Y-13192500D02*
X24597500Y-13392500D01*
X25039229Y-13183984D02*
X25163039Y-13183984D01*
X25163039Y-13183984D02*
X25096372Y-13260174D01*
X25096372Y-13260174D02*
X25124943Y-13260174D01*
X25124943Y-13260174D02*
X25143991Y-13269698D01*
X25143991Y-13269698D02*
X25153515Y-13279222D01*
X25153515Y-13279222D02*
X25163039Y-13298269D01*
X25163039Y-13298269D02*
X25163039Y-13345888D01*
X25163039Y-13345888D02*
X25153515Y-13364936D01*
X25153515Y-13364936D02*
X25143991Y-13374460D01*
X25143991Y-13374460D02*
X25124943Y-13383984D01*
X25124943Y-13383984D02*
X25067801Y-13383984D01*
X25067801Y-13383984D02*
X25048753Y-13374460D01*
X25048753Y-13374460D02*
X25039229Y-13364936D01*
X25248753Y-13364936D02*
X25258277Y-13374460D01*
X25258277Y-13374460D02*
X25248753Y-13383984D01*
X25248753Y-13383984D02*
X25239229Y-13374460D01*
X25239229Y-13374460D02*
X25248753Y-13364936D01*
X25248753Y-13364936D02*
X25248753Y-13383984D01*
X25334467Y-13203031D02*
X25343991Y-13193508D01*
X25343991Y-13193508D02*
X25363039Y-13183984D01*
X25363039Y-13183984D02*
X25410658Y-13183984D01*
X25410658Y-13183984D02*
X25429705Y-13193508D01*
X25429705Y-13193508D02*
X25439229Y-13203031D01*
X25439229Y-13203031D02*
X25448753Y-13222079D01*
X25448753Y-13222079D02*
X25448753Y-13241127D01*
X25448753Y-13241127D02*
X25439229Y-13269698D01*
X25439229Y-13269698D02*
X25324943Y-13383984D01*
X25324943Y-13383984D02*
X25448753Y-13383984D01*
X25572562Y-13183984D02*
X25591610Y-13183984D01*
X25591610Y-13183984D02*
X25610658Y-13193508D01*
X25610658Y-13193508D02*
X25620182Y-13203031D01*
X25620182Y-13203031D02*
X25629705Y-13222079D01*
X25629705Y-13222079D02*
X25639229Y-13260174D01*
X25639229Y-13260174D02*
X25639229Y-13307793D01*
X25639229Y-13307793D02*
X25629705Y-13345888D01*
X25629705Y-13345888D02*
X25620182Y-13364936D01*
X25620182Y-13364936D02*
X25610658Y-13374460D01*
X25610658Y-13374460D02*
X25591610Y-13383984D01*
X25591610Y-13383984D02*
X25572562Y-13383984D01*
X25572562Y-13383984D02*
X25553515Y-13374460D01*
X25553515Y-13374460D02*
X25543991Y-13364936D01*
X25543991Y-13364936D02*
X25534467Y-13345888D01*
X25534467Y-13345888D02*
X25524943Y-13307793D01*
X25524943Y-13307793D02*
X25524943Y-13260174D01*
X25524943Y-13260174D02*
X25534467Y-13222079D01*
X25534467Y-13222079D02*
X25543991Y-13203031D01*
X25543991Y-13203031D02*
X25553515Y-13193508D01*
X25553515Y-13193508D02*
X25572562Y-13183984D01*
X25763039Y-13183984D02*
X25782086Y-13183984D01*
X25782086Y-13183984D02*
X25801134Y-13193508D01*
X25801134Y-13193508D02*
X25810658Y-13203031D01*
X25810658Y-13203031D02*
X25820182Y-13222079D01*
X25820182Y-13222079D02*
X25829705Y-13260174D01*
X25829705Y-13260174D02*
X25829705Y-13307793D01*
X25829705Y-13307793D02*
X25820182Y-13345888D01*
X25820182Y-13345888D02*
X25810658Y-13364936D01*
X25810658Y-13364936D02*
X25801134Y-13374460D01*
X25801134Y-13374460D02*
X25782086Y-13383984D01*
X25782086Y-13383984D02*
X25763039Y-13383984D01*
X25763039Y-13383984D02*
X25743991Y-13374460D01*
X25743991Y-13374460D02*
X25734467Y-13364936D01*
X25734467Y-13364936D02*
X25724943Y-13345888D01*
X25724943Y-13345888D02*
X25715420Y-13307793D01*
X25715420Y-13307793D02*
X25715420Y-13260174D01*
X25715420Y-13260174D02*
X25724943Y-13222079D01*
X25724943Y-13222079D02*
X25734467Y-13203031D01*
X25734467Y-13203031D02*
X25743991Y-13193508D01*
X25743991Y-13193508D02*
X25763039Y-13183984D01*
X25915420Y-13383984D02*
X25915420Y-13250650D01*
X25915420Y-13269698D02*
X25924943Y-13260174D01*
X25924943Y-13260174D02*
X25943991Y-13250650D01*
X25943991Y-13250650D02*
X25972563Y-13250650D01*
X25972563Y-13250650D02*
X25991610Y-13260174D01*
X25991610Y-13260174D02*
X26001134Y-13279222D01*
X26001134Y-13279222D02*
X26001134Y-13383984D01*
X26001134Y-13279222D02*
X26010658Y-13260174D01*
X26010658Y-13260174D02*
X26029705Y-13250650D01*
X26029705Y-13250650D02*
X26058277Y-13250650D01*
X26058277Y-13250650D02*
X26077324Y-13260174D01*
X26077324Y-13260174D02*
X26086848Y-13279222D01*
X26086848Y-13279222D02*
X26086848Y-13383984D01*
X26182086Y-13383984D02*
X26182086Y-13250650D01*
X26182086Y-13269698D02*
X26191610Y-13260174D01*
X26191610Y-13260174D02*
X26210658Y-13250650D01*
X26210658Y-13250650D02*
X26239229Y-13250650D01*
X26239229Y-13250650D02*
X26258277Y-13260174D01*
X26258277Y-13260174D02*
X26267801Y-13279222D01*
X26267801Y-13279222D02*
X26267801Y-13383984D01*
X26267801Y-13279222D02*
X26277324Y-13260174D01*
X26277324Y-13260174D02*
X26296372Y-13250650D01*
X26296372Y-13250650D02*
X26324943Y-13250650D01*
X26324943Y-13250650D02*
X26343991Y-13260174D01*
X26343991Y-13260174D02*
X26353515Y-13279222D01*
X26353515Y-13279222D02*
X26353515Y-13383984D01*
X26743991Y-13174460D02*
X26572563Y-13431603D01*
X27001134Y-13183984D02*
X27020182Y-13183984D01*
X27020182Y-13183984D02*
X27039229Y-13193508D01*
X27039229Y-13193508D02*
X27048753Y-13203031D01*
X27048753Y-13203031D02*
X27058277Y-13222079D01*
X27058277Y-13222079D02*
X27067801Y-13260174D01*
X27067801Y-13260174D02*
X27067801Y-13307793D01*
X27067801Y-13307793D02*
X27058277Y-13345888D01*
X27058277Y-13345888D02*
X27048753Y-13364936D01*
X27048753Y-13364936D02*
X27039229Y-13374460D01*
X27039229Y-13374460D02*
X27020182Y-13383984D01*
X27020182Y-13383984D02*
X27001134Y-13383984D01*
X27001134Y-13383984D02*
X26982086Y-13374460D01*
X26982086Y-13374460D02*
X26972563Y-13364936D01*
X26972563Y-13364936D02*
X26963039Y-13345888D01*
X26963039Y-13345888D02*
X26953515Y-13307793D01*
X26953515Y-13307793D02*
X26953515Y-13260174D01*
X26953515Y-13260174D02*
X26963039Y-13222079D01*
X26963039Y-13222079D02*
X26972563Y-13203031D01*
X26972563Y-13203031D02*
X26982086Y-13193508D01*
X26982086Y-13193508D02*
X27001134Y-13183984D01*
X27153515Y-13364936D02*
X27163039Y-13374460D01*
X27163039Y-13374460D02*
X27153515Y-13383984D01*
X27153515Y-13383984D02*
X27143991Y-13374460D01*
X27143991Y-13374460D02*
X27153515Y-13364936D01*
X27153515Y-13364936D02*
X27153515Y-13383984D01*
X27353515Y-13383984D02*
X27239229Y-13383984D01*
X27296372Y-13383984D02*
X27296372Y-13183984D01*
X27296372Y-13183984D02*
X27277325Y-13212555D01*
X27277325Y-13212555D02*
X27258277Y-13231603D01*
X27258277Y-13231603D02*
X27239229Y-13241127D01*
X27429706Y-13203031D02*
X27439229Y-13193508D01*
X27439229Y-13193508D02*
X27458277Y-13183984D01*
X27458277Y-13183984D02*
X27505896Y-13183984D01*
X27505896Y-13183984D02*
X27524944Y-13193508D01*
X27524944Y-13193508D02*
X27534467Y-13203031D01*
X27534467Y-13203031D02*
X27543991Y-13222079D01*
X27543991Y-13222079D02*
X27543991Y-13241127D01*
X27543991Y-13241127D02*
X27534467Y-13269698D01*
X27534467Y-13269698D02*
X27420182Y-13383984D01*
X27420182Y-13383984D02*
X27543991Y-13383984D01*
X27715420Y-13183984D02*
X27677325Y-13183984D01*
X27677325Y-13183984D02*
X27658277Y-13193508D01*
X27658277Y-13193508D02*
X27648753Y-13203031D01*
X27648753Y-13203031D02*
X27629706Y-13231603D01*
X27629706Y-13231603D02*
X27620182Y-13269698D01*
X27620182Y-13269698D02*
X27620182Y-13345888D01*
X27620182Y-13345888D02*
X27629706Y-13364936D01*
X27629706Y-13364936D02*
X27639229Y-13374460D01*
X27639229Y-13374460D02*
X27658277Y-13383984D01*
X27658277Y-13383984D02*
X27696372Y-13383984D01*
X27696372Y-13383984D02*
X27715420Y-13374460D01*
X27715420Y-13374460D02*
X27724944Y-13364936D01*
X27724944Y-13364936D02*
X27734467Y-13345888D01*
X27734467Y-13345888D02*
X27734467Y-13298269D01*
X27734467Y-13298269D02*
X27724944Y-13279222D01*
X27724944Y-13279222D02*
X27715420Y-13269698D01*
X27715420Y-13269698D02*
X27696372Y-13260174D01*
X27696372Y-13260174D02*
X27658277Y-13260174D01*
X27658277Y-13260174D02*
X27639229Y-13269698D01*
X27639229Y-13269698D02*
X27629706Y-13279222D01*
X27629706Y-13279222D02*
X27620182Y-13298269D01*
X27858277Y-13183984D02*
X27877325Y-13183984D01*
X27877325Y-13183984D02*
X27896372Y-13193508D01*
X27896372Y-13193508D02*
X27905896Y-13203031D01*
X27905896Y-13203031D02*
X27915420Y-13222079D01*
X27915420Y-13222079D02*
X27924944Y-13260174D01*
X27924944Y-13260174D02*
X27924944Y-13307793D01*
X27924944Y-13307793D02*
X27915420Y-13345888D01*
X27915420Y-13345888D02*
X27905896Y-13364936D01*
X27905896Y-13364936D02*
X27896372Y-13374460D01*
X27896372Y-13374460D02*
X27877325Y-13383984D01*
X27877325Y-13383984D02*
X27858277Y-13383984D01*
X27858277Y-13383984D02*
X27839229Y-13374460D01*
X27839229Y-13374460D02*
X27829706Y-13364936D01*
X27829706Y-13364936D02*
X27820182Y-13345888D01*
X27820182Y-13345888D02*
X27810658Y-13307793D01*
X27810658Y-13307793D02*
X27810658Y-13260174D01*
X27810658Y-13260174D02*
X27820182Y-13222079D01*
X27820182Y-13222079D02*
X27829706Y-13203031D01*
X27829706Y-13203031D02*
X27839229Y-13193508D01*
X27839229Y-13193508D02*
X27858277Y-13183984D01*
X28001134Y-13183984D02*
X28001134Y-13222079D01*
X28077325Y-13183984D02*
X28077325Y-13222079D01*
X28372563Y-13460174D02*
X28363039Y-13450650D01*
X28363039Y-13450650D02*
X28343991Y-13422079D01*
X28343991Y-13422079D02*
X28334468Y-13403031D01*
X28334468Y-13403031D02*
X28324944Y-13374460D01*
X28324944Y-13374460D02*
X28315420Y-13326841D01*
X28315420Y-13326841D02*
X28315420Y-13288746D01*
X28315420Y-13288746D02*
X28324944Y-13241127D01*
X28324944Y-13241127D02*
X28334468Y-13212555D01*
X28334468Y-13212555D02*
X28343991Y-13193508D01*
X28343991Y-13193508D02*
X28363039Y-13164936D01*
X28363039Y-13164936D02*
X28372563Y-13155412D01*
X28534468Y-13250650D02*
X28534468Y-13383984D01*
X28486848Y-13174460D02*
X28439229Y-13317317D01*
X28439229Y-13317317D02*
X28563039Y-13317317D01*
X28791610Y-13383984D02*
X28791610Y-13183984D01*
X28877325Y-13383984D02*
X28877325Y-13279222D01*
X28877325Y-13279222D02*
X28867801Y-13260174D01*
X28867801Y-13260174D02*
X28848753Y-13250650D01*
X28848753Y-13250650D02*
X28820182Y-13250650D01*
X28820182Y-13250650D02*
X28801134Y-13260174D01*
X28801134Y-13260174D02*
X28791610Y-13269698D01*
X29001134Y-13383984D02*
X28982087Y-13374460D01*
X28982087Y-13374460D02*
X28972563Y-13364936D01*
X28972563Y-13364936D02*
X28963039Y-13345888D01*
X28963039Y-13345888D02*
X28963039Y-13288746D01*
X28963039Y-13288746D02*
X28972563Y-13269698D01*
X28972563Y-13269698D02*
X28982087Y-13260174D01*
X28982087Y-13260174D02*
X29001134Y-13250650D01*
X29001134Y-13250650D02*
X29029706Y-13250650D01*
X29029706Y-13250650D02*
X29048753Y-13260174D01*
X29048753Y-13260174D02*
X29058277Y-13269698D01*
X29058277Y-13269698D02*
X29067801Y-13288746D01*
X29067801Y-13288746D02*
X29067801Y-13345888D01*
X29067801Y-13345888D02*
X29058277Y-13364936D01*
X29058277Y-13364936D02*
X29048753Y-13374460D01*
X29048753Y-13374460D02*
X29029706Y-13383984D01*
X29029706Y-13383984D02*
X29001134Y-13383984D01*
X29182087Y-13383984D02*
X29163039Y-13374460D01*
X29163039Y-13374460D02*
X29153515Y-13355412D01*
X29153515Y-13355412D02*
X29153515Y-13183984D01*
X29334468Y-13374460D02*
X29315420Y-13383984D01*
X29315420Y-13383984D02*
X29277325Y-13383984D01*
X29277325Y-13383984D02*
X29258277Y-13374460D01*
X29258277Y-13374460D02*
X29248753Y-13355412D01*
X29248753Y-13355412D02*
X29248753Y-13279222D01*
X29248753Y-13279222D02*
X29258277Y-13260174D01*
X29258277Y-13260174D02*
X29277325Y-13250650D01*
X29277325Y-13250650D02*
X29315420Y-13250650D01*
X29315420Y-13250650D02*
X29334468Y-13260174D01*
X29334468Y-13260174D02*
X29343991Y-13279222D01*
X29343991Y-13279222D02*
X29343991Y-13298269D01*
X29343991Y-13298269D02*
X29248753Y-13317317D01*
X29420182Y-13374460D02*
X29439230Y-13383984D01*
X29439230Y-13383984D02*
X29477325Y-13383984D01*
X29477325Y-13383984D02*
X29496372Y-13374460D01*
X29496372Y-13374460D02*
X29505896Y-13355412D01*
X29505896Y-13355412D02*
X29505896Y-13345888D01*
X29505896Y-13345888D02*
X29496372Y-13326841D01*
X29496372Y-13326841D02*
X29477325Y-13317317D01*
X29477325Y-13317317D02*
X29448753Y-13317317D01*
X29448753Y-13317317D02*
X29429706Y-13307793D01*
X29429706Y-13307793D02*
X29420182Y-13288746D01*
X29420182Y-13288746D02*
X29420182Y-13279222D01*
X29420182Y-13279222D02*
X29429706Y-13260174D01*
X29429706Y-13260174D02*
X29448753Y-13250650D01*
X29448753Y-13250650D02*
X29477325Y-13250650D01*
X29477325Y-13250650D02*
X29496372Y-13260174D01*
X29572563Y-13460174D02*
X29582087Y-13450650D01*
X29582087Y-13450650D02*
X29601134Y-13422079D01*
X29601134Y-13422079D02*
X29610658Y-13403031D01*
X29610658Y-13403031D02*
X29620182Y-13374460D01*
X29620182Y-13374460D02*
X29629706Y-13326841D01*
X29629706Y-13326841D02*
X29629706Y-13288746D01*
X29629706Y-13288746D02*
X29620182Y-13241127D01*
X29620182Y-13241127D02*
X29610658Y-13212555D01*
X29610658Y-13212555D02*
X29601134Y-13193508D01*
X29601134Y-13193508D02*
X29582087Y-13164936D01*
X29582087Y-13164936D02*
X29572563Y-13155412D01*
X29934468Y-13460174D02*
X29924944Y-13450650D01*
X29924944Y-13450650D02*
X29905896Y-13422079D01*
X29905896Y-13422079D02*
X29896372Y-13403031D01*
X29896372Y-13403031D02*
X29886849Y-13374460D01*
X29886849Y-13374460D02*
X29877325Y-13326841D01*
X29877325Y-13326841D02*
X29877325Y-13288746D01*
X29877325Y-13288746D02*
X29886849Y-13241127D01*
X29886849Y-13241127D02*
X29896372Y-13212555D01*
X29896372Y-13212555D02*
X29905896Y-13193508D01*
X29905896Y-13193508D02*
X29924944Y-13164936D01*
X29924944Y-13164936D02*
X29934468Y-13155412D01*
X30010658Y-13250650D02*
X30010658Y-13383984D01*
X30010658Y-13269698D02*
X30020182Y-13260174D01*
X30020182Y-13260174D02*
X30039230Y-13250650D01*
X30039230Y-13250650D02*
X30067801Y-13250650D01*
X30067801Y-13250650D02*
X30086849Y-13260174D01*
X30086849Y-13260174D02*
X30096372Y-13279222D01*
X30096372Y-13279222D02*
X30096372Y-13383984D01*
X30220182Y-13383984D02*
X30201134Y-13374460D01*
X30201134Y-13374460D02*
X30191611Y-13364936D01*
X30191611Y-13364936D02*
X30182087Y-13345888D01*
X30182087Y-13345888D02*
X30182087Y-13288746D01*
X30182087Y-13288746D02*
X30191611Y-13269698D01*
X30191611Y-13269698D02*
X30201134Y-13260174D01*
X30201134Y-13260174D02*
X30220182Y-13250650D01*
X30220182Y-13250650D02*
X30248753Y-13250650D01*
X30248753Y-13250650D02*
X30267801Y-13260174D01*
X30267801Y-13260174D02*
X30277325Y-13269698D01*
X30277325Y-13269698D02*
X30286849Y-13288746D01*
X30286849Y-13288746D02*
X30286849Y-13345888D01*
X30286849Y-13345888D02*
X30277325Y-13364936D01*
X30277325Y-13364936D02*
X30267801Y-13374460D01*
X30267801Y-13374460D02*
X30248753Y-13383984D01*
X30248753Y-13383984D02*
X30220182Y-13383984D01*
X30343992Y-13250650D02*
X30420182Y-13250650D01*
X30372563Y-13183984D02*
X30372563Y-13355412D01*
X30372563Y-13355412D02*
X30382087Y-13374460D01*
X30382087Y-13374460D02*
X30401134Y-13383984D01*
X30401134Y-13383984D02*
X30420182Y-13383984D01*
X30639230Y-13250650D02*
X30639230Y-13450650D01*
X30639230Y-13260174D02*
X30658277Y-13250650D01*
X30658277Y-13250650D02*
X30696373Y-13250650D01*
X30696373Y-13250650D02*
X30715420Y-13260174D01*
X30715420Y-13260174D02*
X30724944Y-13269698D01*
X30724944Y-13269698D02*
X30734468Y-13288746D01*
X30734468Y-13288746D02*
X30734468Y-13345888D01*
X30734468Y-13345888D02*
X30724944Y-13364936D01*
X30724944Y-13364936D02*
X30715420Y-13374460D01*
X30715420Y-13374460D02*
X30696373Y-13383984D01*
X30696373Y-13383984D02*
X30658277Y-13383984D01*
X30658277Y-13383984D02*
X30639230Y-13374460D01*
X30848753Y-13383984D02*
X30829706Y-13374460D01*
X30829706Y-13374460D02*
X30820182Y-13355412D01*
X30820182Y-13355412D02*
X30820182Y-13183984D01*
X31010658Y-13383984D02*
X31010658Y-13279222D01*
X31010658Y-13279222D02*
X31001134Y-13260174D01*
X31001134Y-13260174D02*
X30982087Y-13250650D01*
X30982087Y-13250650D02*
X30943992Y-13250650D01*
X30943992Y-13250650D02*
X30924944Y-13260174D01*
X31010658Y-13374460D02*
X30991611Y-13383984D01*
X30991611Y-13383984D02*
X30943992Y-13383984D01*
X30943992Y-13383984D02*
X30924944Y-13374460D01*
X30924944Y-13374460D02*
X30915420Y-13355412D01*
X30915420Y-13355412D02*
X30915420Y-13336365D01*
X30915420Y-13336365D02*
X30924944Y-13317317D01*
X30924944Y-13317317D02*
X30943992Y-13307793D01*
X30943992Y-13307793D02*
X30991611Y-13307793D01*
X30991611Y-13307793D02*
X31010658Y-13298269D01*
X31077325Y-13250650D02*
X31153515Y-13250650D01*
X31105896Y-13183984D02*
X31105896Y-13355412D01*
X31105896Y-13355412D02*
X31115420Y-13374460D01*
X31115420Y-13374460D02*
X31134468Y-13383984D01*
X31134468Y-13383984D02*
X31153515Y-13383984D01*
X31296373Y-13374460D02*
X31277325Y-13383984D01*
X31277325Y-13383984D02*
X31239230Y-13383984D01*
X31239230Y-13383984D02*
X31220182Y-13374460D01*
X31220182Y-13374460D02*
X31210658Y-13355412D01*
X31210658Y-13355412D02*
X31210658Y-13279222D01*
X31210658Y-13279222D02*
X31220182Y-13260174D01*
X31220182Y-13260174D02*
X31239230Y-13250650D01*
X31239230Y-13250650D02*
X31277325Y-13250650D01*
X31277325Y-13250650D02*
X31296373Y-13260174D01*
X31296373Y-13260174D02*
X31305896Y-13279222D01*
X31305896Y-13279222D02*
X31305896Y-13298269D01*
X31305896Y-13298269D02*
X31210658Y-13317317D01*
X31477325Y-13383984D02*
X31477325Y-13183984D01*
X31477325Y-13374460D02*
X31458277Y-13383984D01*
X31458277Y-13383984D02*
X31420182Y-13383984D01*
X31420182Y-13383984D02*
X31401134Y-13374460D01*
X31401134Y-13374460D02*
X31391611Y-13364936D01*
X31391611Y-13364936D02*
X31382087Y-13345888D01*
X31382087Y-13345888D02*
X31382087Y-13288746D01*
X31382087Y-13288746D02*
X31391611Y-13269698D01*
X31391611Y-13269698D02*
X31401134Y-13260174D01*
X31401134Y-13260174D02*
X31420182Y-13250650D01*
X31420182Y-13250650D02*
X31458277Y-13250650D01*
X31458277Y-13250650D02*
X31477325Y-13260174D01*
X31553515Y-13460174D02*
X31563039Y-13450650D01*
X31563039Y-13450650D02*
X31582087Y-13422079D01*
X31582087Y-13422079D02*
X31591611Y-13403031D01*
X31591611Y-13403031D02*
X31601134Y-13374460D01*
X31601134Y-13374460D02*
X31610658Y-13326841D01*
X31610658Y-13326841D02*
X31610658Y-13288746D01*
X31610658Y-13288746D02*
X31601134Y-13241127D01*
X31601134Y-13241127D02*
X31591611Y-13212555D01*
X31591611Y-13212555D02*
X31582087Y-13193508D01*
X31582087Y-13193508D02*
X31563039Y-13164936D01*
X31563039Y-13164936D02*
X31553515Y-13155412D01*
M02*
